<svg id="Capa_1" enable-background="new 0 0 512 512" height="512" viewBox="0 0 512 512" width="512" xmlns="http://www.w3.org/2000/svg"><g><g><g><path d="m11.586 164.555c-2.601 2.092-4.086 5.272-4.086 8.61v.001c0 4.525 2.749 8.584 6.939 10.29 45.206 18.407 87.726 45.423 125.049 81.054l100.826-87.453c-62.542-62.543-161.352-66.709-228.728-12.502z" fill="#9ea2e3"/><path d="m500.548 105.016c3.335-.127 6.543 1.298 8.732 3.817 2.968 3.415 3.557 8.282 1.514 12.319-22.042 43.55-36.407 91.98-41.2 143.357h-133.468c2.768-39.59 18.788-75.173 43.384-102.591 30.22-33.687 73.4-55.087 121.038-56.902z" fill="#efedff"/><path d="m274.001 229.74c0-87.912-66.116-160.383-151.337-170.401-9.023-1.061-15.883 8.061-12.384 16.446 19.777 47.39 30.702 99.396 30.702 153.955 0 11.715-.507 23.31-1.494 34.769h130.986c2.311-11.228 3.527-22.856 3.527-34.769z" fill="#d4d4ff"/><path d="m384.136 204.88c0-14.765-1.565-29.117-4.625-42.961-18.24-82.512-87.92-145.752-173.649-154.357-9.037-.907-15.657 8.286-12.106 16.646 23.583 55.504 36.634 116.563 36.634 180.672 0 20.206-1.301 40.108-3.815 59.63h148.432c5.926-18.822 9.129-38.852 9.129-59.63z" fill="#efedff"/></g><path d="m379.51 161.918c-62.125 13.68-116.704 50.303-152.935 102.591h243.02c-19.168-42.373-50.574-78.059-90.085-102.591z" fill="#d4d4ff"/></g><g><path d="m474.5 264.509h-267.925l-40 60 30 60h307.925v-90c0-16.568-13.431-30-30-30z" fill="#ffb39d"/><path d="m226.575 264.509h-111.991c-16.569 0-30 13.431-30 30v90h111.992v-90c-.001-16.568 13.431-30 29.999-30z" fill="#ff8f71"/></g><g><g><path d="m196.575 367.608c-12.185 5.561-25.933 6.696-38.785 3.327.015-.015.029-.03.044-.045-9.773-2.544-19.104-7.698-26.731-15.479-22.672-23.01-59.915-23.115-82.689 0l-.061.062c-11.243 11.412-26.029 17.17-40.853 17.295v51.197l44.066 51.447h151.239c-4.05-9.068-6.229-19-6.229-29.211v-78.593z" fill="#55dafe"/><path d="m463.648 355.474c-21.427-21.857-56.121-23.165-79.148-3.402-6.579 5.649-22.945 26.556-58.576 18.439-10.96-1.567-21.012-6.641-29.342-15.121-22.8-23.209-60.027-22.892-82.895.25-5.078 5.139-10.892 9.128-17.112 11.967v78.593c0 10.211 2.179 20.143 6.229 29.211h269.697c.654-.664 31.322-51.303 31.999-51.928 0-37.284 0-48.239 0-50.716-14.824-.124-29.61-5.882-40.852-17.293z" fill="#b9f0ff"/></g><g><path d="m419.69 425.412c-22.793-23.135-60.108-23.035-82.75.062-22.635 22.974-59.856 23.199-82.75-.062-15.469-15.701-37.749-20.769-57.614-14.984l-10 75.773 40 18.299h217.925c33.137 0 60-26.863 60-60 0-.342 0-.452 0-.442v-20.574c-22.95 23.316-62.264 24.928-84.811 1.928z" fill="#55dafe"/><path d="m196.575 446.201v-35.773c-9.202 2.68-17.888 7.682-25.136 15.046-22.882 23.225-60.212 22.929-82.75-.062-22.243-22.577-58.348-23.049-81.189-1.447v20.535c0 33.137 26.863 60 60 60h159.075c-18.827-13.449-30-35.162-30-58.299z" fill="#2ed0fc"/></g></g><g fill="#ffdbe0"><ellipse cx="175.943" cy="333.16" rx="29.355" ry="23.377"/><ellipse cx="335.057" cy="333.16" rx="29.355" ry="23.377"/></g><g><path d="m193.051 318.157c4.142 0 7.5-3.358 7.5-7.5v-12c0-4.142-3.358-7.5-7.5-7.5s-7.5 3.358-7.5 7.5v12c0 4.142 3.358 7.5 7.5 7.5z"/><path d="m317.949 318.157c4.142 0 7.5-3.358 7.5-7.5v-12c0-4.142-3.358-7.5-7.5-7.5s-7.5 3.358-7.5 7.5v12c0 4.142 3.358 7.5 7.5 7.5z"/><path d="m255.5 325.3c8.478 0 16.54-3.671 22.119-10.073 2.721-3.123 2.396-7.86-.727-10.582-3.123-2.721-7.861-2.396-10.582.727-2.729 3.132-6.669 4.928-10.81 4.928s-8.081-1.796-10.81-4.928c-2.722-3.123-7.459-3.447-10.582-.727-3.123 2.722-3.448 7.459-.727 10.582 5.579 6.402 13.641 10.073 22.119 10.073z"/><path d="m477.839 257.166c5.292-53.298 12.891-94.579 32.148-132.626 1.318-2.604 2.014-5.518 2.014-8.428 0-10.614-8.861-18.99-19.236-18.591-17.639.672-34.467 4.01-50.017 9.919-3.872 1.472-5.818 5.803-4.347 9.675s5.807 5.816 9.675 4.346c15.011-5.705 32.245-8.739 45.385-8.954 2.539 0 4.394 2.781 3.144 5.257-19.546 38.619-27.271 80.319-31.912 120.98-18.289-31.214-43.322-57.881-73.592-78.261 10.26-10.602 20.662-19.229 31.621-26.223 3.491-2.229 4.516-6.866 2.287-10.357-2.229-3.492-6.867-4.517-10.357-2.287-10.852 6.926-21.156 15.269-31.251 25.311-26.089-89.334-110.692-146.927-181.791-146.927-14.74 0-20.556 13.492-14.757 27.141 7.89 18.569 14.503 37.617 19.822 57.004-5.066-3.634-10.307-7.018-15.716-10.1-3.597-2.051-8.179-.796-10.229 2.803-2.051 3.599-.796 8.179 2.803 10.229 10.388 5.92 20.131 13.005 29.014 21.054 10.527 48.596 13.086 98.921 7.378 148.878h-72.351c4.173-63.044-5.928-125.542-30.372-184.115-1.274-3.05 1.193-6.504 4.587-6.107 12.181 1.432 24.197 4.239 35.713 8.343 3.904 1.39 8.193-.646 9.583-4.547 1.39-3.902-.646-8.192-4.547-9.583-12.577-4.481-25.697-7.547-39-9.111-14.803-1.73-25.874 13.141-20.177 26.784 5.564 13.334 10.363 26.892 14.394 40.644-40.359.271-79.383 14.062-110.868 39.394-4.378 3.52-6.887 8.789-6.887 14.454 0 7.6 4.558 14.365 11.611 17.237 39.665 16.15 76.075 38.521 108.482 66.607h-5.509c-20.678 0-37.5 16.822-37.5 37.5v37.326c-12.849 2.498-24.639 8.798-34.073 18.375-9.456 9.596-22.089 14.944-35.574 15.058-4.118.035-7.437 3.382-7.437 7.5v71.732c0 37.22 30.28 67.5 67.5 67.5h377c37.22 0 67.5-30.28 67.5-67.5 0-3.675 0-145.822 0-149.991 0-19.552-15.043-35.647-34.161-37.343zm-20.206-.157h-216.19c34.327-43.757 82.277-74.4 136.697-87.09 33.911 21.681 61.173 51.586 79.493 87.09zm-256.974-235.734c-1.315-3.095 1.06-6.591 4.454-6.251 79.66 7.996 145.225 64.401 165.34 141.336-52.404 13.153-98.935 42.063-133.812 82.845 5.233-72.081-5.893-147.116-35.982-217.93zm-183.392 155.234c-2.623-1.067-2.994-4.49-.979-6.111 29.871-24.032 67.153-36.729 105.543-36.062 9.14 36.549 13.051 74.812 11.199 114.087-34.426-30.448-73.29-54.62-115.763-71.914zm479.733 267.991c0 28.949-23.552 52.5-52.5 52.5h-377c-28.949 0-52.5-23.551-52.5-52.5v-17.155c19.906-16.597 49.927-15.366 68.333 3.318 25.57 26.083 67.704 26.207 93.451.073 19.845-20.164 52.215-20.204 72.06-.062 25.732 26.143 67.746 26.143 93.451.051 19.778-20.175 52.237-20.16 72.039-.062 21.507 21.939 56.451 24.369 82.666 8.266zm0-24.22c-20.067 18.175-52.861 19.36-71.968-.132-25.729-26.115-67.854-26.033-93.436.062-19.755 20.051-52.152 20.169-72.064-.062-25.267-25.647-67.322-26.47-93.436.062-19.85 20.148-52.343 20.056-72.064-.062-21.448-21.77-54.087-25.223-79.032-11.014v-29.344c14.658-1.771 28.197-8.397 38.756-19.114 19.976-20.276 52.436-19.86 71.991-.013 25.998 26.519 68.05 25.78 93.276.25 9.738-9.855 22.667-15.279 36.412-15.279h.077c13.544.02 26.229 5.352 35.72 15.013 9.256 9.422 20.849 14.922 33.323 17.244 35.712 6.647 54.453-10.25 62.583-18.033 20.866-19.971 52.443-18.221 71.167.88 10.508 10.663 24.039 17.282 38.695 19.052zm0-55.634c-10.598-1.672-20.345-6.656-27.997-14.422-24.244-24.734-65.263-27.03-92.238-1.201-7.484 7.165-21.192 19.544-49.175 15.176-2.199-.343-14.065-2.264-25.658-14.064-12.328-12.55-28.806-19.476-46.399-19.501-.034 0-.066 0-.1 0-17.785 0-34.503 7.007-47.081 19.736-19.937 20.177-52.4 19.677-71.908-.222-11.859-12.037-27.536-18.904-44.361-19.485v-36.154c0-12.407 10.093-22.5 22.5-22.5h359.917c12.406 0 22.5 10.093 22.5 22.5z"/></g></g></svg>