<svg height="512" viewBox="0 0 512 512" width="512" xmlns="http://www.w3.org/2000/svg" xmlns:xlink="http://www.w3.org/1999/xlink"><linearGradient id="New_Gradient_Swatch_20" gradientUnits="userSpaceOnUse" x1="24" x2="416" y1="116" y2="116"><stop offset=".011" stop-color="#fce6aa"/><stop offset="1" stop-color="#fdf3d4"/></linearGradient><linearGradient id="New_Gradient_Swatch_2" gradientUnits="userSpaceOnUse" x1="4" x2="460" y1="284" y2="284"><stop offset="0" stop-color="#d46669"/><stop offset="1" stop-color="#dd888a"/></linearGradient><linearGradient id="New_Gradient_Swatch_5" gradientUnits="userSpaceOnUse" x1="89.515" x2="374.485" y1="574.485" y2="289.515"><stop offset=".011" stop-color="#f8c73f"/><stop offset="1" stop-color="#fada7f"/></linearGradient><linearGradient id="New_Gradient_Swatch_22" gradientUnits="userSpaceOnUse" x1="332.118" x2="467.882" y1="467.882" y2="332.118"><stop offset=".011" stop-color="#dcdce3"/><stop offset="1" stop-color="#ededf1"/></linearGradient><g id="_04-study" data-name="04-study"><g id="gradient"><path d="m88 44h328a0 0 0 0 1 0 0v144a0 0 0 0 1 0 0h-328a64 64 0 0 1 -64-64v-16a64 64 0 0 1 64-64z" fill="url(#New_Gradient_Swatch_20)"/><path d="m432 200h-344a76.086 76.086 0 0 1 -76-76v-16a76.086 76.086 0 0 1 76-76h344a12 12 0 0 1 0 24h-344a52.059 52.059 0 0 0 -52 52v16a52.059 52.059 0 0 0 52 52h344a12 12 0 0 1 0 24z" fill="#83839e"/><path d="m112 104h168a12 12 0 0 0 0-24h-168a12 12 0 0 0 0 24z" fill="#fbe095"/><path d="m328 80a12 12 0 0 0 0 24h88v-24z" fill="#fbe095"/><path d="m100 140a12 12 0 0 0 12 12h304v-24h-304a12 12 0 0 0 -12 12z" fill="#fbe095"/><rect fill="url(#New_Gradient_Swatch_2)" height="128" rx="12" width="456" x="4" y="220"/><g fill="#ecbbbc"><path d="m52 220h24v128h-24z"/><path d="m108 220h24v128h-24z"/><path d="m324 220h24v128h-24z"/><path d="m380 220h24v128h-24z"/></g><path d="m204 300h-36a12 12 0 0 1 0-24h36a12 12 0 0 1 0 24z" fill="#d46669"/><path d="m288 300h-32a12 12 0 0 1 0-24h32a12 12 0 0 1 0 24z" fill="#d46669"/><rect fill="url(#New_Gradient_Swatch_5)" height="128" rx="12" width="456" x="4" y="368"/><path d="m52 368h24v128h-24z" fill="#f7c12a"/><path d="m108 368h24v128h-24z" fill="#f7c12a"/><path d="m324 368h24v128h-24z" fill="#f7c12a"/><path d="m364 368h24v128h-24z" fill="#f7c12a"/><path d="m220 448h-52a12 12 0 0 1 0-24h52a12 12 0 0 1 0 24z" fill="#fce6aa"/><path d="m300 448h-32a12 12 0 0 1 0-24h32a12 12 0 0 1 0 24z" fill="#fce6aa"/><circle cx="400" cy="400" fill="url(#New_Gradient_Swatch_22)" r="96"/><path d="m400 292a108 108 0 1 0 108 108 108.122 108.122 0 0 0 -108-108zm12 191.129v-11.129a12 12 0 0 0 -24 0v11.129a84.17 84.17 0 0 1 -71.129-71.129h11.129a12 12 0 0 0 0-24h-11.129a84.17 84.17 0 0 1 71.129-71.129v11.129a12 12 0 0 0 24 0v-11.129a84.17 84.17 0 0 1 71.129 71.129h-11.129a12 12 0 0 0 0 24h11.129a84.17 84.17 0 0 1 -71.129 71.129z" fill="#b8b8c7"/><path d="m400 412a11.969 11.969 0 0 1 -5.362-1.267l-32-16a12 12 0 1 1 10.732-21.466l24.261 12.133 25.884-25.884a12 12 0 0 1 16.97 16.97l-32 32a11.991 11.991 0 0 1 -8.485 3.514z" fill="#dd888a"/></g></g></svg>