<svg id="Capa_1" enable-background="new 0 0 512 512" height="512" viewBox="0 0 512 512" width="512" xmlns="http://www.w3.org/2000/svg"><g><path d="m459.5 136.005h-287-120c-24.853 0-45 20.147-45 45v230c0 24.853 20.147 45 45 45h120 287c24.853 0 45-20.147 45-45v-230c0-24.853-20.147-45-45-45z" fill="#88c5fd"/><path d="m127.5 411.005v-230c0-24.853 20.147-45 45-45h-120c-24.853 0-45 20.147-45 45v230c0 24.853 20.147 45 45 45h120c-24.853 0-45-20.147-45-45z" fill="#64b3fb"/><path d="m52.5 313.461v80.087c0 9.641 7.815 17.456 17.456 17.456h372.087c9.641 0 17.456-7.815 17.456-17.456v-80.087z" fill="#b9bbfc"/><g><path d="m255.999 78.305c-38.494-24.813-87.182-29.405-130.085-11.315-17.286 7.289-32.207 9.942-45.582 10.878-15.717 1.1-27.832 14.324-27.832 30.079v235.601c0 9.642 7.817 17.456 17.457 17.456 19.221 0 38.247-3.847 55.958-11.315 42.339-17.859 91.095-13.817 130.085 11.315l50-153.65z" fill="#d4d4ff"/><path d="m386.086 66.991c-42.568-17.949-91.255-13.714-130.085 11.315h-.001-.001v282.699h.001.001c38.83-25.029 87.517-29.264 130.085-11.315 17.711 7.468 36.737 11.315 55.958 11.315 9.641 0 17.456-7.815 17.456-17.456v-235.75c0-15.697-12.091-28.804-27.749-29.912-13.278-.94-28.379-3.607-45.665-10.896z" fill="#efedff"/></g><g><g><g><ellipse cx="176.443" cy="230.714" fill="#ff8e9e" rx="29.355" ry="23.377"/></g><g><ellipse cx="335.557" cy="230.714" fill="#ff8e9e" rx="29.355" ry="23.377"/></g></g></g><g><path d="m467 129.042v-21.243c0-19.591-15.251-36.016-34.72-37.394-15.406-1.09-29.159-4.371-43.28-10.325-43.415-18.305-92.772-14.731-133.009 9.402-35.327-21.193-77.889-26.582-117.262-15.008-3.962 1.156-6.258 5.319-5.08 9.31 1.142 3.889 5.274 6.25 9.311 5.08 34.468-10.141 72.896-6.051 105.539 13.618l.002 265.516c-39.69-20.773-85.791-21.969-125.501-5.224l-.87.37c-16.63 6.87-34.18 10.36-52.17 10.36-5.48-.01-9.95-4.48-9.96-9.95v-.005-235.605c0-11.87 9.16-21.8 20.859-22.59 11.971-.84 23.101-2.91 34.03-6.33 3.94-1.24 6.15-5.45 4.92-9.4-1.222-3.888-5.298-6.158-9.399-4.92-9.931 3.11-19.65 4.91-30.601 5.68-19.654 1.406-34.809 17.843-34.809 37.56v21.098c-25.628 3.662-45 25.69-45 51.962v230c0 28.935 23.446 52.5 52.5 52.5h278.569c4.141 0 7.5-3.36 7.5-7.5s-3.359-7.5-7.5-7.5h-278.569c-20.517 0-37.5-16.576-37.5-37.5v-230c0-18.371 13.099-33.334 30-36.75v199.295.005 49.995c0 13.761 11.195 24.956 24.957 24.956h372.087c13.761 0 24.956-11.195 24.956-24.956v-50-199.295c16.905 3.417 30 18.386 30 36.75v230c0 20.519-16.579 37.5-37.5 37.5h-98.431c-4.14 0-7.5 3.36-7.5 7.5s3.36 7.5 7.5 7.5h98.431c28.953 0 52.5-23.469 52.5-52.5v-230c0-26.343-19.453-48.312-45-51.962zm-218.499 245.72v28.743h-178.545c-5.49 0-9.956-4.466-9.956-9.956v-27.111c3.102 1.35 6.475 2.066 9.96 2.066 20.411 0 40.457-4.146 58.8-11.88l.07-.03c39.207-16.523 83.644-13.119 119.671 8.58zm203.499 18.787c0 5.49-4.467 9.956-9.957 9.956h-178.542v-38.338c36.176-21.789 80.604-25.039 119.671-8.566 18.733 7.899 38.541 11.904 58.872 11.904 3.538 0 6.904-.745 9.956-2.078zm0-50c0 5.49-4.467 9.956-9.957 9.956-18.318 0-36.164-3.609-53.043-10.726-40.491-17.073-86.487-15.22-125.501 5.188l.002-265.5c36.177-21.787 80.604-25.039 119.671-8.566 15.684 6.613 30.952 10.256 48.05 11.466 11.651.825 20.778 10.678 20.778 22.432z"/><path d="m201.052 208.211v-12c0-4.142-3.357-7.5-7.5-7.5s-7.5 3.358-7.5 7.5v12c0 4.142 3.357 7.5 7.5 7.5s7.5-3.358 7.5-7.5z"/><path d="m318.448 188.711c-4.143 0-7.5 3.358-7.5 7.5v12c0 4.142 3.357 7.5 7.5 7.5s7.5-3.358 7.5-7.5v-12c0-4.142-3.357-7.5-7.5-7.5z"/></g></g></svg>