<?xml version="1.0" encoding="iso-8859-1"?>
<!-- Generator: Adobe Illustrator 19.0.0, SVG Export Plug-In . SVG Version: 6.00 Build 0)  -->
<svg version="1.1" id="Capa_1" xmlns="http://www.w3.org/2000/svg" xmlns:xlink="http://www.w3.org/1999/xlink" x="0px" y="0px"
	 viewBox="0 0 512 512" style="enable-background:new 0 0 512 512;" xml:space="preserve">
<path style="fill:#5DA3E2;" d="M275.806,468.015V45.366c0-5.691-4.614-10.307-10.307-10.307h-68.53
	c-5.692,0-10.307,4.614-10.307,10.307v422.65c0,5.692,4.614,10.307,10.307,10.307h68.53
	C271.191,478.322,275.806,473.707,275.806,468.015z"/>
<path style="fill:#8CC63F;" d="M186.663,468.015V45.366c0-5.691-4.614-10.307-10.307-10.307h-68.53
	c-5.692,0-10.307,4.614-10.307,10.307v422.65c0,5.692,4.614,10.307,10.307,10.307h68.53
	C182.048,478.322,186.663,473.707,186.663,468.015z"/>
<path style="fill:#C64757;" d="M97.519,468.015V45.366c0-5.691-4.614-10.307-10.307-10.307h-68.53
	c-5.692,0-10.307,4.614-10.307,10.307v422.65c0,5.692,4.614,10.307,10.307,10.307h68.53
	C92.905,478.322,97.519,473.707,97.519,468.015z"/>
<path style="fill:#4887CC;" d="M206.664,468.015V45.365c0-5.691,4.614-10.306,10.306-10.306h-20.001
	c-5.692,0-10.306,4.614-10.306,10.306v422.65c0,5.692,4.614,10.307,10.306,10.307h20.001
	C211.278,478.322,206.664,473.707,206.664,468.015z"/>
<path style="fill:#79AA2D;" d="M117.521,468.015V45.365c0-5.691,4.614-10.306,10.307-10.306h-20.001
	c-5.692,0-10.307,4.614-10.307,10.306v422.65c0,5.692,4.614,10.307,10.307,10.307h20.001
	C122.135,478.322,117.521,473.707,117.521,468.015z"/>
<g>
	<path style="fill:#B2364B;" d="M28.377,468.015V45.365c0-5.691,4.614-10.306,10.306-10.306H18.681
		c-5.692,0-10.306,4.614-10.306,10.306v422.65c0,5.692,4.614,10.307,10.306,10.307h20.001
		C32.991,478.322,28.377,473.707,28.377,468.015z"/>
	<rect x="8.376" y="86.747" style="fill:#B2364B;" width="89.146" height="29.522"/>
</g>
<rect x="8.376" y="86.747" style="fill:#A32F48;" width="20.001" height="29.522"/>
<rect x="8.376" y="116.268" style="fill:#D8556B;" width="89.146" height="29.522"/>
<rect x="8.376" y="116.268" style="fill:#C64757;" width="20.001" height="29.522"/>
<rect x="8.376" y="367.595" style="fill:#B2364B;" width="89.146" height="29.522"/>
<rect x="8.376" y="367.595" style="fill:#A32F48;" width="20.001" height="29.522"/>
<rect x="8.376" y="397.117" style="fill:#D8556B;" width="89.146" height="29.522"/>
<rect x="8.376" y="397.117" style="fill:#C64757;" width="20.001" height="29.522"/>
<rect x="97.516" y="86.747" style="fill:#79AA2D;" width="89.146" height="29.522"/>
<rect x="97.516" y="86.747" style="fill:#709B27;" width="20.001" height="29.522"/>
<rect x="97.516" y="116.268" style="fill:#A1D353;" width="89.146" height="29.522"/>
<rect x="97.516" y="116.268" style="fill:#8CC63F;" width="20.001" height="29.522"/>
<rect x="97.516" y="367.595" style="fill:#79AA2D;" width="89.146" height="29.522"/>
<rect x="97.516" y="367.595" style="fill:#709B27;" width="20.001" height="29.522"/>
<rect x="97.516" y="397.117" style="fill:#A1D353;" width="89.146" height="29.522"/>
<rect x="97.516" y="397.117" style="fill:#8CC63F;" width="20.001" height="29.522"/>
<rect x="186.662" y="86.747" style="fill:#4887CC;" width="89.146" height="29.522"/>
<rect x="186.662" y="86.747" style="fill:#2C75B7;" width="20.001" height="29.522"/>
<rect x="186.662" y="116.268" style="fill:#73BBEF;" width="89.146" height="29.522"/>
<rect x="186.662" y="116.268" style="fill:#5DA3E2;" width="20.001" height="29.522"/>
<rect x="186.662" y="367.595" style="fill:#4887CC;" width="89.146" height="29.522"/>
<rect x="186.662" y="367.595" style="fill:#2C75B7;" width="20.001" height="29.522"/>
<rect x="186.662" y="397.117" style="fill:#73BBEF;" width="89.146" height="29.522"/>
<rect x="186.662" y="397.117" style="fill:#5DA3E2;" width="20.001" height="29.522"/>
<path style="fill:#FFD261;" d="M504.753,441.054L360.197,43.894c-1.947-5.348-7.861-8.107-13.21-6.159l-64.398,23.439
	c-5.348,1.947-8.107,7.862-6.159,13.21l144.554,397.161c1.947,5.348,7.86,8.107,13.21,6.159l64.398-23.439
	C503.941,452.317,506.699,446.404,504.753,441.054z"/>
<g>
	<path style="fill:#F8BF00;" d="M439.78,464.703L295.225,67.541c-1.947-5.348,0.811-11.263,6.159-13.21l-18.795,6.84
		c-5.348,1.947-8.107,7.861-6.159,13.21l144.555,397.162c1.947,5.348,7.86,8.107,13.21,6.159l18.795-6.84
		C447.641,472.809,441.726,470.051,439.78,464.703z"/>
	
		<rect x="292.95" y="97.145" transform="matrix(-0.9397 0.342 -0.342 -0.9397 692.9651 101.6316)" style="fill:#F8BF00;" width="89.146" height="29.522"/>
</g>
<rect x="295.029" y="108.965" transform="matrix(-0.9397 0.342 -0.342 -0.9397 633.9797 135.6708)" style="fill:#EFA603;" width="20.001" height="29.522"/>
<rect x="303.04" y="124.884" transform="matrix(-0.9397 0.342 -0.342 -0.9397 722.0237 151.9847)" style="fill:#FCD98B;" width="89.146" height="29.522"/>
<rect x="305.129" y="136.71" transform="matrix(-0.9397 0.342 -0.342 -0.9397 663.0608 186.0332)" style="fill:#FFD261;" width="20.001" height="29.522"/>
<rect x="388.989" y="361.054" transform="matrix(-0.9397 0.342 -0.342 -0.9397 969.5094 580.6899)" style="fill:#F8BF00;" width="89.146" height="29.522"/>
<rect x="391.081" y="372.88" transform="matrix(-0.9397 0.342 -0.342 -0.9397 910.5504 614.7377)" style="fill:#EFA603;" width="20.001" height="29.522"/>
<rect x="399.088" y="388.799" transform="matrix(-0.9397 0.342 -0.342 -0.9397 998.5866 631.0529)" style="fill:#FCD98B;" width="89.146" height="29.522"/>
<rect x="401.17" y="400.618" transform="matrix(-0.9397 0.342 -0.342 -0.9397 939.6071 665.0911)" style="fill:#FFD261;" width="20.001" height="29.522"/>
<path d="M510.926,437.792L510.926,437.792c-1.071-2.943-34.348-94.371-34.348-94.371c-1.614-4.434-108.602-298.381-110.207-302.79
	c-1.627-4.469-4.896-8.039-9.208-10.049c-4.31-2.01-9.147-2.22-13.616-0.594l-61.115,22.244v-7.559
	c0-9.819-7.988-17.807-17.807-17.807h-68.53c-3.842,0-7.394,1.235-10.307,3.312c-2.912-2.077-6.464-3.312-10.307-3.312h-68.53
	c-3.842,0-7.394,1.235-10.307,3.313c-2.913-2.077-6.464-3.312-10.307-3.312h-68.53C7.988,26.868,0,34.855,0,44.674
	c0,4.515,0,411.558,0,422.65c0,9.819,7.988,17.807,17.807,17.807h68.53c3.842,0,7.393-1.235,10.306-3.312
	c2.913,2.077,6.464,3.313,10.307,3.313h16.765c4.143,0,7.5-3.358,7.5-7.5s-3.357-7.5-7.5-7.5H106.95
	c-1.547,0-2.806-1.259-2.806-2.806l0,0v-33.88h74.143v33.88c0,1.547-1.259,2.806-2.806,2.806h-16.764c-4.143,0-7.5,3.358-7.5,7.5
	s3.357,7.5,7.5,7.5h16.764c3.842,0,7.394-1.235,10.307-3.312c2.912,2.077,6.464,3.312,10.307,3.312h68.53
	c9.819,0,17.807-7.989,17.807-17.807c0-1.321,0-191.131,0-193.824c0-4.142-3.357-7.5-7.5-7.5s-7.5,3.358-7.5,7.5v85.9h-74.143
	V152.599h74.143v85.9c0,4.142,3.357,7.5,7.5,7.5s7.5-3.358,7.5-7.5c0-10.285,0-107.354,0-123.99l0.228,0.626v0.001
	c15.214,41.799,114.669,315.051,130.402,358.274c3.365,9.25,13.574,14.01,22.823,10.644l64.398-23.44
	C509.509,457.256,514.283,447.019,510.926,437.792z M89.144,467.324c0,1.547-1.259,2.806-2.806,2.806h-68.53
	c-1.547,0-2.806-1.259-2.806-2.806v-33.88h74.143V467.324z M89.144,418.443H15.001v-14.521h74.143V418.443z M89.144,388.921H15.001
	V374.4h74.143V388.921z M89.144,359.399H15.001v-206.8h74.143V359.399z M89.144,137.598H15.001v-14.521h74.143V137.598z
	 M89.144,108.077H15.001V93.556h74.143V108.077z M89.144,78.555H15.001V44.674c0-1.547,1.259-2.805,2.806-2.805h68.53
	c1.547,0,2.806,1.258,2.806,2.805V78.555z M178.286,418.443h-74.143v-14.521h74.143V418.443z M178.286,388.921h-74.143V374.4h74.143
	V388.921z M178.286,359.399h-74.143v-206.8h74.143V359.399z M178.286,137.598h-74.143v-14.521h74.143V137.598z M178.286,108.077
	h-74.143V93.556h74.143V108.077z M178.286,78.555h-74.143V44.674c0-1.547,1.259-2.806,2.806-2.806h68.53
	c1.547,0,2.806,1.259,2.806,2.806V78.555z M267.43,467.324c0,1.547-1.259,2.806-2.806,2.806h-68.53
	c-1.547,0-2.806-1.259-2.806-2.806v-33.88h74.143V467.324z M267.43,418.443h-74.143v-14.521h74.143V418.443z M267.43,374.4v14.521
	h-74.143V374.4H267.43z M267.43,137.598h-74.143v-14.521h74.143V137.598z M267.43,108.077h-74.143V93.556h74.143V108.077z
	 M267.43,78.555h-74.143V44.674c0-1.547,1.259-2.806,2.806-2.806h68.53c1.547,0,2.806,1.259,2.806,2.806V78.555z M282.603,71.121
	c-0.529-1.454,0.223-3.067,1.677-3.596l64.398-23.439c0.342-0.125,0.664-0.171,0.956-0.171c0.519,0,0.938,0.147,1.189,0.265
	c0.394,0.184,1.104,0.633,1.45,1.583L363.861,77.6l-69.671,25.358L282.603,71.121z M299.322,117.053l69.67-25.358
	c4.321,11.874,3.322,9.129,4.966,13.645l-69.671,25.358L299.322,117.053z M309.419,144.795l69.671-25.358l4.966,13.645
	l-69.671,25.358L309.419,144.795z M319.516,172.536l69.671-25.358l70.73,194.329l-69.67,25.358L319.516,172.536z M395.376,380.961
	l69.672-25.358c1.248,3.429,3.944,10.837,4.966,13.645l-69.671,25.358L395.376,380.961z M410.44,422.347l-4.966-13.645
	l69.671-25.358l4.966,13.645L410.44,422.347z M495.152,446.519l-64.398,23.44c-1.456,0.529-3.065-0.219-3.596-1.677l-11.588-31.837
	l69.67-25.358l11.588,31.836C497.358,444.376,496.606,445.99,495.152,446.519z"/>
<g>
</g>
<g>
</g>
<g>
</g>
<g>
</g>
<g>
</g>
<g>
</g>
<g>
</g>
<g>
</g>
<g>
</g>
<g>
</g>
<g>
</g>
<g>
</g>
<g>
</g>
<g>
</g>
<g>
</g>
</svg>
