<svg height="512" viewBox="0 0 58 58" width="512" xmlns="http://www.w3.org/2000/svg"><g id="Page-1" fill="none" fill-rule="evenodd"><g id="022---Science-Book" fill-rule="nonzero"><path id="Shape" d="m3.882 40.665-3.758 10.665c-.2172228.6109407-.12478692 1.289277.24798421 1.8198201s.97961247.8474469 1.62801579.8501799h20c0 2.21 3.13 4 7 4s7-1.79 7-4h20c.6491104-.0014392 1.2571506-.3178092 1.630858-.8485532s.4665961-1.2098423.249142-1.8214468l-3.7-10.484z" fill="#a56a43"/><path id="Shape" d="m36 54c0 2.21-3.13 4-7 4s-7-1.79-7-4l1-4h12z" fill="#603e26"/><path id="Shape" d="m8.13 40.648-3.296 9.352h23.16 2.02 23.16l-3.305-9.377z" fill="#805333"/><path id="Shape" d="m54.88 44.01c-13.29-4.43-20.19.16-23.43 3.99-1.0320286 1.1888344-1.8599103 2.540478-2.45 4v-31.98h12.14c2.4471164.1653054 4.856423.6909724 7.15 1.56.2823037.1104349.5041697.335938.61.62l7.25 20.54c.1236364.3611176.0309198.7611201-.23898 1.03102-.2698999.2698998-.6699024.3626164-1.03102.23898z" fill="#f5efca"/><path id="Shape" d="m29 20.02v31.98c-.5900897-1.459522-1.4179714-2.8111656-2.45-4-3.23-3.83-10.13-8.42-23.43-3.99-.35984032.1184308-.75570892.0233582-1.02252015-.2455706-.26681123-.2689287-.35875154-.6655365-.23747985-1.0244294l7.24-20.54c.10276844-.2859989.32570985-.5125951.61-.62 2.296995-.8691728 4.7096193-1.3948283 7.16-1.56z" fill="#f9eab0"/><path id="Shape" d="m43 27c-.0018083 7.0419805-5.2340257 12.986678-12.2187778 13.88263-6.9847521.8959521-13.5479723-3.5357143-15.3270638-10.3492542-1.7790915-6.8135398 1.7797039-13.8881778 8.3108416-16.5213758.7484827-.3039598 1.2372445-1.0321554 1.235-1.84v-2.172h8v2.172c.0011915.8123812.4953463 1.5427333 1.249 1.846 5.2886782 2.1412716 8.7501264 7.276287 8.751 12.982z" fill="#2fa8cc"/><rect id="Rectangle-path" fill="#67b9cc" height="5" rx="2" width="12" x="23" y="5"/><g fill="#955ba5"><circle id="Oval" cx="28.5" cy="19.5" r="2.5"/><circle id="Oval" cx="23" cy="22" r="1"/><circle id="Oval" cx="22" cy="26" r="1"/></g><path id="Shape" d="m33 5 .761-3.8c.0600998-.29442665-.0153882-.60027193-.2055798-.83292226s-.4749224-.36743961-.7754202-.36707774h-7.56c-.3004978-.00036187-.5852286.13442741-.7754202.36707774s-.2656796.53849561-.2055798.83292226l.761 3.8z" fill="#cf976a"/><path id="Shape" d="m43 27c-.0067162 7.0742687-5.2898029 13.0319338-12.3124963 13.8846349s-13.5780153-3.667535-15.2775037-10.5346349c2.8034496.5294695 5.6894461.4304235 8.45-.29 3.7-1 6.58-3.68 10.01-5.24 2.7665785-1.3376832 5.9470133-1.5387039 8.86-.56.1818474.9019395.2723048 1.8199141.27 2.74z" fill="#955ba5"/><circle id="Oval" cx="35.5" cy="31.5" fill="#894b9d" r="2.5"/><circle id="Oval" cx="26" cy="34" fill="#894b9d" r="1"/><circle id="Oval" cx="30" cy="35" fill="#894b9d" r="1"/></g></g></svg>