<?xml version="1.0" encoding="iso-8859-1"?>
<!-- Generator: Adobe Illustrator 19.0.0, SVG Export Plug-In . SVG Version: 6.00 Build 0)  -->
<svg version="1.1" id="Capa_1" xmlns="http://www.w3.org/2000/svg" xmlns:xlink="http://www.w3.org/1999/xlink" x="0px" y="0px"
	 viewBox="0 0 512 512" style="enable-background:new 0 0 512 512;" xml:space="preserve">
<path style="fill:#A00B3F;" d="M7.604,7.604v496.792h496.792V7.604H7.604z"/>
<rect x="27.881" y="27.881" style="fill:#E2324E;" width="456.238" height="456.238"/>
<polygon style="fill:#A00B3F;" points="256,320.522 187.894,388.627 123.373,324.106 191.478,256 123.373,187.894 187.894,123.373 
	256,191.478 324.106,123.373 388.627,187.894 320.522,256 388.627,324.106 324.106,388.627 "/>
<polygon style="fill:#FFFFFF;" points="324.106,152.049 256,220.155 187.894,152.049 152.049,187.894 220.155,256 152.049,324.106 
	187.894,359.951 256,291.845 324.106,359.951 359.951,324.106 291.845,256 359.951,187.894 "/>
<path d="M0,0v512h512V0H0z M496.792,496.792H15.208V15.208h481.584V496.792z"/>
<rect x="50.693" y="446.099" width="15.208" height="15.208"/>
<rect x="50.693" y="139.021" width="15.208" height="14.623"/>
<rect x="50.693" y="95.151" width="15.208" height="14.623"/>
<rect x="50.693" y="182.88" width="15.208" height="14.623"/>
<rect x="50.693" y="402.229" width="15.208" height="14.623"/>
<rect x="50.693" y="226.75" width="15.208" height="14.623"/>
<rect x="50.693" y="358.359" width="15.208" height="14.623"/>
<rect x="50.693" y="270.62" width="15.208" height="14.623"/>
<rect x="50.693" y="314.49" width="15.208" height="14.623"/>
<rect x="50.693" y="50.693" width="15.208" height="15.208"/>
<rect x="270.62" y="50.693" width="14.623" height="15.208"/>
<rect x="314.49" y="50.693" width="14.624" height="15.208"/>
<rect x="358.359" y="50.693" width="14.623" height="15.208"/>
<rect x="402.229" y="50.693" width="14.623" height="15.208"/>
<rect x="139.021" y="50.693" width="14.623" height="15.208"/>
<rect x="182.88" y="50.693" width="14.624" height="15.208"/>
<rect x="95.151" y="50.693" width="14.623" height="15.208"/>
<rect x="226.75" y="50.693" width="14.623" height="15.208"/>
<rect x="446.099" y="50.693" width="15.208" height="15.208"/>
<rect x="446.099" y="226.75" width="15.208" height="14.623"/>
<rect x="446.099" y="182.88" width="15.208" height="14.623"/>
<rect x="446.099" y="270.62" width="15.208" height="14.623"/>
<rect x="446.099" y="95.151" width="15.208" height="14.623"/>
<rect x="446.099" y="139.021" width="15.208" height="14.623"/>
<rect x="446.099" y="314.49" width="15.208" height="14.623"/>
<rect x="446.099" y="358.359" width="15.208" height="14.623"/>
<rect x="446.099" y="402.229" width="15.208" height="14.623"/>
<rect x="446.099" y="446.099" width="15.208" height="15.208"/>
<rect x="226.75" y="446.099" width="14.623" height="15.208"/>
<rect x="270.62" y="446.099" width="14.623" height="15.208"/>
<rect x="182.88" y="446.099" width="14.624" height="15.208"/>
<rect x="139.021" y="446.099" width="14.623" height="15.208"/>
<rect x="314.49" y="446.099" width="14.624" height="15.208"/>
<rect x="358.359" y="446.099" width="14.623" height="15.208"/>
<rect x="402.229" y="446.099" width="14.623" height="15.208"/>
<rect x="95.151" y="446.099" width="14.623" height="15.208"/>
<path d="M141.295,187.894L209.401,256l-68.106,68.106l46.599,46.598L256,302.598l68.106,68.106l46.599-46.598L302.599,256
	l68.106-68.106l-46.599-46.598L256,209.401l-68.106-68.106L141.295,187.894z M324.106,162.802l25.092,25.092L281.092,256
	l68.106,68.106l-25.092,25.092L256,281.092l-68.106,68.106l-25.092-25.092L230.908,256l-68.106-68.106l25.092-25.092L256,230.908
	L324.106,162.802z"/>
<g>
</g>
<g>
</g>
<g>
</g>
<g>
</g>
<g>
</g>
<g>
</g>
<g>
</g>
<g>
</g>
<g>
</g>
<g>
</g>
<g>
</g>
<g>
</g>
<g>
</g>
<g>
</g>
<g>
</g>
</svg>
