<svg id="Capa_1" enable-background="new 0 0 497 497" height="512" viewBox="0 0 497 497" width="512" xmlns="http://www.w3.org/2000/svg"><g><path d="m38.555 274.592c-16.773 0-33.546 43.197-33.546 79.99 0 36.792 24.889 35.982 33.546 35.982s33.546.811 33.546-35.982-16.773-79.99-33.546-79.99z" fill="#15a977"/><path d="m137.483 274.592c-16.773 0-33.546 43.197-33.546 79.99 0 36.792 24.889 35.982 33.546 35.982s33.546.811 33.546-35.982-16.773-79.99-33.546-79.99z" fill="#15a977"/><path d="m38.555 274.592c-5.163 0-10.326 4.098-15 10.838 10.51 15.155 18.546 43.685 18.546 69.152 0 22.522-9.326 30.943-18.546 34.096 5.842 1.998 11.642 1.886 15 1.886 8.657 0 33.546.811 33.546-35.982 0-36.794-16.773-79.99-33.546-79.99z" fill="#139a71"/><path d="m137.483 274.592c-5.163 0-10.326 4.098-15 10.838 10.509 15.155 18.546 43.685 18.546 69.152 0 22.522-9.326 30.943-18.546 34.096 5.842 1.998 11.642 1.886 15 1.886 8.657 0 33.546.811 33.546-35.982 0-36.794-16.773-79.99-33.546-79.99z" fill="#139a71"/><path d="m38.554 424.277c-4.143 0-7.5-3.358-7.5-7.5v-61.98c0-4.142 3.357-7.5 7.5-7.5s7.5 3.358 7.5 7.5v61.98c0 4.142-3.357 7.5-7.5 7.5z" fill="#c38c66"/><path d="m137.482 424.277c-4.143 0-7.5-3.358-7.5-7.5v-61.98c0-4.142 3.357-7.5 7.5-7.5s7.5 3.358 7.5 7.5v61.98c0 4.142-3.357 7.5-7.5 7.5z" fill="#c38c66"/><path d="m483.996 415.676-142.191 20-150.033-20 26.107-99.699c1.166-4.454 3.251-8.62 6.122-12.237l103.865-130.86c5.102-6.428 14.935-6.428 20.037 0l103.865 130.859c2.871 3.617 4.955 7.784 6.121 12.237z" fill="#ffa500"/><path d="m452.073 303.739-102.881-130.859c-5.054-6.429-14.793-6.429-19.847 0l-5.076 6.457 65.065 82.759c24.437 31.082 42.176 66.885 52.103 105.156l12.56 48.424h30l-25.86-99.699c-1.156-4.454-3.22-8.621-6.064-12.238z" fill="#ed9806"/><path d="m399.317 415.676-61.433 10-64.201-10c27.106-24.892 46.911-56.705 57.282-92.014 1.623-5.524 9.448-5.524 11.07 0 10.371 35.309 30.176 67.122 57.282 92.014z" fill="#766d78"/><path d="m344.335 281.684h-15.101c-4.143 0-7.5-3.358-7.5-7.5s3.357-7.5 7.5-7.5h15.101c4.143 0 7.5 3.358 7.5 7.5s-3.358 7.5-7.5 7.5z" fill="#ed9806"/><path d="m344.335 252.25h-15.101c-4.143 0-7.5-3.358-7.5-7.5s3.357-7.5 7.5-7.5h15.101c4.143 0 7.5 3.358 7.5 7.5s-3.358 7.5-7.5 7.5z" fill="#ed9806"/><circle cx="191.772" cy="72.109" fill="#ffea9a" r="53.264"/><path d="m191.772 18.845c-5.21 0-10.241.762-15 2.156 22.111 6.48 38.264 26.901 38.264 51.108 0 24.206-16.153 44.628-38.264 51.108 4.759 1.395 9.79 2.156 15 2.156 29.417 0 53.264-23.847 53.264-53.264s-23.847-53.264-53.264-53.264z" fill="#ffe06f"/><path d="m478.902 414.637h-460.804c-9.995 0-18.098 8.103-18.098 18.098v39.244c0 3.411 2.765 6.177 6.176 6.177h484.647c3.411 0 6.177-2.765 6.177-6.177v-39.244c0-9.995-8.103-18.098-18.098-18.098z" fill="#c3fdc8"/><path d="m478.902 414.637h-30c9.995 0 18.098 8.103 18.098 18.098v45.42h23.823c3.411 0 6.177-2.765 6.177-6.177v-39.244c0-9.994-8.103-18.097-18.098-18.097z" fill="#98eba0"/><path d="m222.835 97.958h-19.319v.047c-5.845-8.347-15.245-14.101-26.201-14.887-5.232-.375-10.273.426-14.877 2.167-7.585-16.365-24.146-27.722-43.369-27.722-19.488 0-36.241 11.672-43.677 28.402-5.268-2.307-11.207-3.368-17.45-2.775-17.076 1.621-30.61 15.715-31.592 32.84-.008.133-.015.266-.021.399-.394 8.526 6.527 15.612 15.062 15.612h181.444c9.412 0 17.041-7.63 17.041-17.041.001-9.413-7.629-17.042-17.041-17.042z" fill="#b6edff"/></g></svg>