<svg id="Capa_1" enable-background="new 0 0 496.999 496.999" height="512" viewBox="0 0 496.999 496.999" width="512" xmlns="http://www.w3.org/2000/svg"><path d="m291 75.971-42.5 61.254s-6.618 253.32 48.371 253.32c52.932 0 166.976-99.448 166.976-99.448l-149.267-215.126c-5.684-8.192-17.895-8.192-23.58 0z" fill="#f26e91"/><path d="m463.846 291.096-149.266-215.125c-5.685-8.193-17.896-8.193-23.58 0l-3.21 4.626 156.796 225.979 16.384 2.066z" fill="#e05c7e"/><path d="m463.846 291.097c-51.917 46.335-116.363 63.258-161.056 63.258s-109.139-16.923-161.056-63.258l-36.587 52.73c61.917 61.34 142.655 83.37 197.643 83.37 52.932 0 129.724-20.413 190.621-76.653 4.082-3.77 4.77-9.962 1.604-14.525z" fill="#15a977"/><path d="m495.016 336.019-31.17-44.922c-6.256 5.583-12.696 10.729-19.259 15.479l20.429 29.443c3.166 4.563 2.478 10.755-1.604 14.525-55.365 51.131-123.863 72.644-175.63 76.131 5.179.349 10.195.522 15.009.522 52.932 0 129.724-20.413 190.621-76.653 4.081-3.77 4.769-9.963 1.604-14.525z" fill="#129468"/><path d="m379.728 282.081c2.394 11.947 8.997 15.945 15.882 14.591 6.886-1.354 11.447-7.547 9.053-19.494s-16.802-19.181-16.802-19.181-10.527 12.137-8.133 24.084z" fill="#bd4d69"/><path d="m317.499 150.116c0 12.18-5.691 17.375-12.711 17.375s-12.711-5.195-12.711-17.375 12.711-22.054 12.711-22.054 12.711 9.873 12.711 22.054z" fill="#bd4d69"/><path d="m333.731 220.905c2.394 11.947 8.997 15.945 15.883 14.59 6.886-1.354 11.447-7.547 9.053-19.494s-16.802-19.18-16.802-19.18-10.528 12.137-8.134 24.084z" fill="#bd4d69"/><path d="m181.264 75.971-149.266 215.126s108.835 126.101 161.056 126.101c50.989 0 161.056-126.101 161.056-126.101l-149.266-215.126c-5.685-8.192-17.896-8.192-23.58 0z" fill="#f26e91"/><path d="m354.109 291.096-149.265-215.125c-5.708-8.226-17.872-8.226-23.58 0l-3.21 4.626 168.828 243.319z" fill="#e05c7e"/><path d="m354.109 291.097c-24.343 21.726-51.442 36.985-77.966 47.066-2.259.858-4.514 11.679-6.763 12.464-2.935 1.023-5.858-8.016-8.767-7.116-24.506 7.582-47.937 10.844-67.56 10.844-10.487 0-22.061-.932-34.305-2.956-4.053-.67-8.18 8.54-12.365 7.624-4.617-1.01-9.306-12.173-14.044-13.497-13.333-3.725-27.068-8.722-40.751-15.167-5.09-2.397-25.225 2.198-25.225 2.198s1.066-15.141-3.349-17.965c-10.647-6.809-21.062-14.612-31.016-23.495l-29.379 42.34c-4.233 6.101-3.237 14.383 2.278 19.355 7.39 6.662 15.003 12.807 22.77 18.462 4.651 3.386 19.358-3.403 24.104-.363 5.13 3.286.306 16.373 5.511 19.269 17.911 9.966 36.153 17.665 53.957 23.397 10.087 3.247 20.033-4.137 29.699-2.099 9.223 1.945 18.19 13.364 26.781 14.304 8.893.974 17.383 1.434 25.335 1.434 20.256 0 44.007-2.99 69.024-9.832 7.368-2.015 6.846-16.365 14.376-19.071 5.955-2.14 19.943 7.498 25.935 4.902 26.313-11.399 52.721-27.303 76.842-48.636 6.697-5.923 7.841-15.956 2.744-23.302z" fill="#7dcf84"/><path d="m166.859 417.928c-2.52-22.206-5.309-44.382-8.107-66.555-8.526-1.415-17.371-3.351-26.405-5.876-8.104 22.252-14.225 45.367-20.831 68.124 19.617 6.302 38.689 10.204 56.205 12.127-.288-2.607-.566-5.214-.862-7.82z" fill="#118f65"/><path d="m276.051 341.047c-.48-1.12-.368-2.114.084-2.904-5.204 1.978-10.388 3.776-15.523 5.365.887 24.568-.235 49.362 1.462 73.845 13.194-3.608 26.739-8.292 40.31-14.169-9.143-20.558-17.499-41.503-26.333-62.137z" fill="#118f65"/><g fill="#bd4d69"><path d="m119.055 281.081c-2.394 11.947-8.997 15.945-15.882 14.591-6.886-1.354-11.447-7.547-9.053-19.494s16.802-19.181 16.802-19.181 10.527 12.137 8.133 24.084z"/><path d="m268.933 281.081c2.394 11.947 8.997 15.945 15.883 14.591s11.447-7.547 9.053-19.494-16.802-19.181-16.802-19.181-10.528 12.137-8.134 24.084z"/><path d="m206.705 297.001c0 12.18-5.691 17.375-12.711 17.375s-12.711-5.194-12.711-17.375c0-12.18 12.711-22.054 12.711-22.054s12.711 9.874 12.711 22.054z"/><path d="m206.705 149.116c0 12.18-5.691 17.375-12.711 17.375s-12.711-5.195-12.711-17.375 12.711-22.054 12.711-22.054 12.711 9.873 12.711 22.054z"/><path d="m170.109 221.909c-2.394 11.947-8.997 15.945-15.882 14.59-6.886-1.354-11.447-7.547-9.053-19.494s16.802-19.18 16.802-19.18 10.527 12.137 8.133 24.084z"/><path d="m217.879 221.909c2.394 11.947 8.997 15.945 15.882 14.59 6.886-1.354 11.447-7.547 9.053-19.494s-16.802-19.18-16.802-19.18-10.527 12.137-8.133 24.084z"/></g><path d="m63.019 314.584c-12.016 18.726-23.958 37.537-35.338 56.652 9.679 7.046 19.599 13.315 29.619 18.892 10.557-17.057 19.801-34.994 29.616-52.46.486-.865 2.671-4.219 4.491-7.034.063-.098.126-.195.188-.291-4.406-2.075-8.807-4.299-13.187-6.678-5.166-2.806-10.304-5.828-15.389-9.081z" fill="#118f65"/></svg>